<svg xmlns="http://www.w3.org/2000/svg" viewBox="0 0 200 200" width="200" height="200">
  <!-- 배경 원 -->
  <defs>
    <linearGradient id="bgGrad" x1="0%" y1="0%" x2="100%" y2="100%">
      <stop offset="0%" style="stop-color:#667eea;stop-opacity:1" />
      <stop offset="100%" style="stop-color:#764ba2;stop-opacity:1" />
    </linearGradient>
  </defs>
  <circle cx="100" cy="100" r="100" fill="url(#bgGrad)" />

  <!-- 로봇 머리 -->
  <rect x="55" y="55" width="90" height="70" rx="12" ry="12" fill="white" opacity="0.95"/>

  <!-- 눈 -->
  <circle cx="80" cy="85" r="10" fill="#667eea"/>
  <circle cx="120" cy="85" r="10" fill="#667eea"/>
  <circle cx="83" cy="82" r="3" fill="white"/>
  <circle cx="123" cy="82" r="3" fill="white"/>

  <!-- 입 -->
  <rect x="72" y="105" width="8" height="8" rx="2" fill="#764ba2"/>
  <rect x="86" y="105" width="8" height="8" rx="2" fill="#764ba2"/>
  <rect x="100" y="105" width="8" height="8" rx="2" fill="#764ba2"/>
  <rect x="114" y="105" width="8" height="8" rx="2" fill="#764ba2"/>

  <!-- 안테나 -->
  <rect x="97" y="38" width="6" height="20" rx="3" fill="white" opacity="0.9"/>
  <circle cx="100" cy="34" r="7" fill="white" opacity="0.9"/>

  <!-- 몸통 -->
  <rect x="68" y="132" width="64" height="38" rx="10" fill="white" opacity="0.85"/>

  <!-- 몸통 버튼 -->
  <circle cx="88" cy="148" r="6" fill="#667eea"/>
  <circle cx="100" cy="148" r="6" fill="#764ba2"/>
  <circle cx="112" cy="148" r="6" fill="#667eea"/>

  <!-- 몸통 하단 바 -->
  <rect x="78" y="158" width="44" height="5" rx="2.5" fill="#667eea" opacity="0.5"/>
</svg>
