<svg width="400" height="200" viewBox="0 0 400 200" xmlns="http://www.w3.org/2000/svg">
  <rect width="400" height="200" fill="#f5f3ff"/>
  <!-- 상단 컬러바 -->
  <rect width="400" height="9" fill="#6d28d9"/>
  <rect x="318" width="82" height="9" fill="#22c55e"/>
  <!-- 스트리밍 흐름 표현 (물결 느낌) -->
  <rect x="63" y="27" width="280" height="160" rx="6" fill="#c4b5fd" opacity="0.3"/>
  <rect x="60" y="24" width="280" height="160" rx="6" fill="white"/>
  <!-- 문서 헤더 -->
  <rect x="60" y="24" width="280" height="34" rx="6" fill="#ede9fe"/>
  <rect x="60" y="46" width="280" height="12" fill="#ede9fe"/>
  <rect x="78" y="35" width="110" height="8" rx="3" fill="#6d28d9"/>
  <!-- beta 뱃지 -->
  <rect x="282" y="33" width="36" height="12" rx="6" fill="#7c3aed"/>
  <text x="300" y="42" text-anchor="middle" font-size="7" fill="white" font-family="sans-serif" font-weight="bold">BETA</text>
  <!-- 스트리밍 커서 표현: 줄이 생겨나는 느낌 -->
  <rect x="78" y="74" width="244" height="5" rx="2" fill="#e2e8f0"/>
  <rect x="78" y="87" width="200" height="5" rx="2" fill="#e2e8f0"/>
  <rect x="78" y="100" width="230" height="5" rx="2" fill="#e2e8f0"/>
  <!-- 타이핑 중인 줄 (부분 + 깜빡이 커서 표현) -->
  <rect x="78" y="113" width="140" height="5" rx="2" fill="#c4b5fd"/>
  <rect x="222" y="111" width="3" height="9" rx="1" fill="#7c3aed" opacity="0.8"/>
  <!-- 나머지 흐릿하게 -->
  <rect x="78" y="126" width="180" height="5" rx="2" fill="#f0edff"/>
  <rect x="78" y="139" width="120" height="5" rx="2" fill="#f0edff"/>
  <!-- AI 스파크 아이콘 -->
  <polygon points="312,148 318,160 324,148 312,154" fill="#7c3aed" opacity="0.7"/>
  <polygon points="324,148 330,160 336,148 324,154" fill="#a78bfa" opacity="0.5"/>
</svg>
