<svg width="600" height="200" viewBox="0 0 600 200" xmlns="http://www.w3.org/2000/svg">
  <defs>
    <linearGradient id="bg3" x1="0%" y1="0%" x2="100%" y2="100%">
      <stop offset="0%" stop-color="#f0fdf4"/>
      <stop offset="100%" stop-color="#dcfce7"/>
    </linearGradient>
  </defs>
  <rect width="600" height="200" fill="url(#bg3)"/>
  <!-- 차트 배경 박스 -->
  <rect x="30" y="25" width="540" height="150" rx="10" fill="white" opacity="0.7"/>
  <!-- 차트 격자 -->
  <line x1="80" y1="155" x2="540" y2="155" stroke="#e2e8f0" stroke-width="1"/>
  <line x1="80" y1="130" x2="540" y2="130" stroke="#e2e8f0" stroke-width="0.8" stroke-dasharray="4,3"/>
  <line x1="80" y1="105" x2="540" y2="105" stroke="#e2e8f0" stroke-width="0.8" stroke-dasharray="4,3"/>
  <line x1="80" y1="80" x2="540" y2="80" stroke="#e2e8f0" stroke-width="0.8" stroke-dasharray="4,3"/>
  <line x1="80" y1="55" x2="540" y2="55" stroke="#e2e8f0" stroke-width="0.8" stroke-dasharray="4,3"/>
  <!-- Y축 -->
  <line x1="80" y1="40" x2="80" y2="155" stroke="#cbd5e1" stroke-width="1.5"/>
  <!-- 막대 차트 -->
  <rect x="105" y="95" width="45" height="60" rx="4" fill="#22c55e" opacity="0.8"/>
  <rect x="175" y="70" width="45" height="85" rx="4" fill="#16a34a" opacity="0.8"/>
  <rect x="245" y="50" width="45" height="105" rx="4" fill="#22c55e" opacity="0.9"/>
  <rect x="315" y="80" width="45" height="75" rx="4" fill="#4ade80" opacity="0.8"/>
  <rect x="385" y="60" width="45" height="95" rx="4" fill="#16a34a" opacity="0.85"/>
  <rect x="455" y="40" width="45" height="115" rx="4" fill="#22c55e" opacity="0.9"/>
  <!-- 꺾은선 (추세선) -->
  <polyline points="127,95 197,68 267,48 337,78 407,58 477,38"
    fill="none" stroke="#0066cc" stroke-width="2.5" stroke-linecap="round" stroke-linejoin="round"/>
  <circle cx="127" cy="95" r="4" fill="#0066cc"/>
  <circle cx="197" cy="68" r="4" fill="#0066cc"/>
  <circle cx="267" cy="48" r="4" fill="#0066cc"/>
  <circle cx="337" cy="78" r="4" fill="#0066cc"/>
  <circle cx="407" cy="58" r="4" fill="#0066cc"/>
  <circle cx="477" cy="38" r="4" fill="#0066cc"/>
  <!-- 태그 -->
  <rect x="480" y="162" width="90" height="24" rx="12" fill="#16a34a"/>
  <text x="525" y="178" text-anchor="middle" font-size="11" fill="white" font-family="sans-serif" font-weight="bold">차트 에디터</text>
</svg>
