<svg width="600" height="200" viewBox="0 0 600 200" xmlns="http://www.w3.org/2000/svg">
  <defs>
    <linearGradient id="bg5" x1="0%" y1="0%" x2="100%" y2="100%">
      <stop offset="0%" stop-color="#fff1f2"/>
      <stop offset="100%" stop-color="#ffe4e6"/>
    </linearGradient>
  </defs>
  <rect width="600" height="200" fill="url(#bg5)"/>
  <!-- 모니터 프레임 -->
  <rect x="80" y="25" width="380" height="130" rx="10" fill="white" opacity="0.85"/>
  <rect x="80" y="25" width="380" height="130" rx="10" fill="none" stroke="#fca5a5" stroke-width="2"/>
  <!-- 모니터 스탠드 -->
  <rect x="248" y="155" width="44" height="18" rx="2" fill="#fca5a5" opacity="0.6"/>
  <rect x="228" y="170" width="84" height="6" rx="3" fill="#fca5a5" opacity="0.5"/>
  <!-- 화면 내용 (녹화 중 느낌) -->
  <rect x="96" y="40" width="348" height="100" rx="6" fill="#1a1a2e" opacity="0.85"/>
  <!-- 화면 속 UI -->
  <rect x="110" y="52" width="200" height="8" rx="3" fill="#4ade80" opacity="0.7"/>
  <rect x="110" y="68" width="160" height="6" rx="3" fill="#86efac" opacity="0.5"/>
  <rect x="110" y="82" width="180" height="6" rx="3" fill="#86efac" opacity="0.4"/>
  <!-- 녹화 버튼 (빨간 원) -->
  <circle cx="390" cy="90" r="28" fill="#ef4444" opacity="0.2"/>
  <circle cx="390" cy="90" r="20" fill="#ef4444" opacity="0.9"/>
  <!-- 정지 아이콘 -->
  <rect x="382" y="82" width="6" height="16" rx="2" fill="white"/>
  <rect x="392" y="82" width="6" height="16" rx="2" fill="white"/>
  <!-- REC 텍스트 + 깜빡이는 점 -->
  <circle cx="118" cy="52" r="5" fill="#ef4444"/>
  <text x="130" y="56" font-size="9" fill="#ef4444" font-family="sans-serif" font-weight="bold">REC</text>
  <!-- 우측 하단 태그 -->
  <rect x="480" y="160" width="90" height="24" rx="12" fill="#ef4444"/>
  <text x="525" y="176" text-anchor="middle" font-size="11" fill="white" font-family="sans-serif" font-weight="bold">화면 녹화</text>
</svg>
