<svg width="600" height="200" viewBox="0 0 600 200" xmlns="http://www.w3.org/2000/svg">
  <defs>
    <linearGradient id="bg2" x1="0%" y1="0%" x2="100%" y2="100%">
      <stop offset="0%" stop-color="#eff6ff"/>
      <stop offset="100%" stop-color="#dbeafe"/>
    </linearGradient>
  </defs>
  <rect width="600" height="200" fill="url(#bg2)"/>
  <!-- 남양주 스타일 상단 바 -->
  <rect width="600" height="8" fill="#1e40af"/>
  <rect x="476" width="124" height="8" fill="#22c55e"/>
  <!-- 문서 카드들 -->
  <rect x="40" y="35" width="120" height="140" rx="6" fill="white" opacity="0.9"/>
  <rect x="40" y="35" width="120" height="28" rx="6" fill="#dbeafe"/>
  <rect x="40" y="51" width="120" height="12" fill="#dbeafe"/>
  <rect x="50" y="43" width="60" height="6" rx="3" fill="#1e40af"/>
  <rect x="50" y="76" width="100" height="4" rx="2" fill="#e2e8f0"/>
  <rect x="50" y="88" width="80" height="4" rx="2" fill="#e2e8f0"/>
  <rect x="50" y="100" width="90" height="4" rx="2" fill="#e2e8f0"/>
  <rect x="50" y="112" width="70" height="4" rx="2" fill="#e2e8f0"/>

  <rect x="178" y="50" width="120" height="125" rx="6" fill="white" opacity="0.9"/>
  <rect x="178" y="50" width="120" height="28" rx="6" fill="#dbeafe"/>
  <rect x="178" y="66" width="120" height="12" fill="#dbeafe"/>
  <rect x="188" y="58" width="60" height="6" rx="3" fill="#1e40af"/>
  <rect x="188" y="90" width="100" height="4" rx="2" fill="#e2e8f0"/>
  <rect x="188" y="102" width="80" height="4" rx="2" fill="#e2e8f0"/>
  <rect x="188" y="114" width="90" height="4" rx="2" fill="#e2e8f0"/>

  <rect x="316" y="35" width="120" height="140" rx="6" fill="white" opacity="0.9"/>
  <rect x="316" y="35" width="120" height="28" rx="6" fill="#dbeafe"/>
  <rect x="316" y="51" width="120" height="12" fill="#dbeafe"/>
  <rect x="326" y="43" width="60" height="6" rx="3" fill="#1e40af"/>
  <rect x="326" y="76" width="100" height="4" rx="2" fill="#e2e8f0"/>
  <rect x="326" y="88" width="80" height="4" rx="2" fill="#e2e8f0"/>
  <rect x="326" y="100" width="90" height="4" rx="2" fill="#e2e8f0"/>
  <rect x="326" y="112" width="70" height="4" rx="2" fill="#e2e8f0"/>

  <!-- 우측 태그 -->
  <rect x="478" y="162" width="80" height="24" rx="12" fill="#1e40af"/>
  <text x="518" y="178" text-anchor="middle" font-size="11" fill="white" font-family="sans-serif" font-weight="bold">템플릿</text>
</svg>
